<?xml version="1.0" encoding="utf-8"?>
<!-- Generator: Adobe Illustrator 17.1.0, SVG Export Plug-In . SVG Version: 6.00 Build 0)  -->
<!DOCTYPE svg PUBLIC "-//W3C//DTD SVG 1.1//EN" "http://www.w3.org/Graphics/SVG/1.1/DTD/svg11.dtd">
<svg version="1.1" id="Layer_1" xmlns="http://www.w3.org/2000/svg" xmlns:xlink="http://www.w3.org/1999/xlink" x="0px" y="0px"
	 viewBox="0 0 612 792" enable-background="new 0 0 612 792" xml:space="preserve">
<polygon fill="#51B848" stroke="#121312" stroke-miterlimit="10" points="145.5,442.6 65.8,442.6 151.6,263.7 233.7,442.6 "/>
<polygon fill="#0D0E0E" points="145.1,493.6 145.1,405.1 107.3,368.3 115.9,359.1 145.1,390.3 145.1,356.3 126.2,322.3 131.6,313.1 
	145.1,333.6 145.1,310.3 153,310.3 158,310.3 158,362 180.1,335.8 186.5,346.4 160.1,378.2 158,409.4 186.5,382.5 192.2,394.5 
	163.7,420 158,425 157.2,493.6 "/>
<g>
	<path fill="none" stroke="#FFFFFF" stroke-miterlimit="10" d="M261.5,559.8c86.2-180.4,86.2-180.4,86.2-180.4"/>
	<polygon fill="#409BD5" stroke="#0E0E0E" stroke-miterlimit="10" points="284.5,492.7 370.7,266.2 459.3,492.7 	"/>
	<polygon fill="#E92B29" points="337.3,492.7 368.3,402 402.3,492.7 	"/>
	<polyline fill="none" stroke="#0D0E0E" stroke-miterlimit="10" points="337.3,492.7 368.3,402 370.7,266.2 	"/>
	<path fill="#E92B29" d="M402.3,489.4"/>
	<line fill="none" stroke="#09090E" stroke-miterlimit="10" x1="405.3" y1="491.8" x2="370.7" y2="402"/>
</g>
<polyline fill="#0E0E0E" points="57.4,492.7 533.1,492.7 533.1,500.7 57.4,500.7 "/>
<radialGradient id="SVGID_1_" cx="279.6219" cy="440.6135" r="0" gradientTransform="matrix(4.8562 0 0 4.858 -1259.4188 -1618.9412)" gradientUnits="userSpaceOnUse">
	<stop  offset="0" style="stop-color:#FFFFFF"/>
	<stop  offset="1" style="stop-color:#000000"/>
</radialGradient>
<path fill="#EA9B23" stroke="url(#SVGID_1_)" stroke-miterlimit="10" d="M98.5,521.6"/>
<text transform="matrix(0.5202 1.2508 -0.9231 0.3845 409.0151 271.6791)" fill="#0E0E14" font-family="'Mistral'" font-size="66.339">H O D A</text>
</svg>
